# xmcd
#
# Track frame offsets:
#	150
#	12445
#	18160
#	31065
#	41062
#	52232
#	64012
#	73960
#	83192
#	100320
#	108747
#	124937
#	141860
#	154927
#	165717
#	175450
#	195425
#	213040
#	229072
#	245082
#	266717
#	277630
#	289567
#	301807
#	320275
#
# Disc length: 4362 seconds
# Revision: 5
# Processed by: cddbd v1.5.2PL0 Copyright (c) Steve Scherf et al.
# Submitted via: dBpowerAMP V12.0
#
DISCID=66110819
DTITLE=Nitty Gritty Dirt Band, The - Will the Circle be Unbroken
DYEAR=1972
DGENRE=Country
TTITLE0=Lonesome Fiddle Blues
TTITLE1=Cannonball Rag
TTITLE2=Avalanche
TTITLE3=Flint Hill Special
TTITLE4=Togary Mountain
TTITLE5=Earl's Breakdown
TTITLE6=Orange Blossom Special
TTITLE7=Wabash Cannonball
TTITLE8=Lost Highway
TTITLE9=Doc Watson and Merle Travis: First Meeting [Dialogue]
TTITLE10=Way Downtown
TTITLE11=Down Yonder
TTITLE12=Pins and Needles (In My Heart)
TTITLE13=Honky Tonk Blues
TTITLE14=Sailin' On to Hawaii
TTITLE15=I'm Thinking Tonight of My Blue Eyes
TTITLE16=I Am a Pilgrim
TTITLE17=Wildwood Flower
TTITLE18=Soldier's Joy
TTITLE19=Will the Circle Be Unbroken
TTITLE20=Both Sides Now
TTITLE21=Foggy Mountain Breakdown
TTITLE22=Warming Up for "The Opry" [Spoken]
TTITLE23=Sunny Side [Spoken]
TTITLE24=Remember Me
EXTD=
EXTT0=
EXTT1=
EXTT2=
EXTT3=
EXTT4=
EXTT5=
EXTT6=
EXTT7=
EXTT8=
EXTT9=
EXTT10=
EXTT11=
EXTT12=
EXTT13=
EXTT14=
EXTT15=
EXTT16=
EXTT17=
EXTT18=
EXTT19=
EXTT20=
EXTT21=
EXTT22=
EXTT23=
EXTT24=
PLAYORDER=
